<?xml version="1.0" encoding="iso-8859-1"?>
<!-- Generator: Adobe Illustrator 23.1.1, SVG Export Plug-In . SVG Version: 6.00 Build 0)  -->
<svg version="1.1" id="Layer_1" xmlns="http://www.w3.org/2000/svg" xmlns:xlink="http://www.w3.org/1999/xlink" x="0px" y="0px"
	 viewBox="0 0 612 792" style="enable-background:new 0 0 612 792;" xml:space="preserve">
<path d="M338.722,458.091c1.536,9.468-9.994,18.008-25.927,18.008c-15.932,0-27.463-8.54-25.927-18.008
	c1.373-8.465,12.924-14.696,25.927-14.696C325.797,443.395,337.348,449.626,338.722,458.091z"/>
<polyline style="fill:none;stroke:#000000;stroke-width:3;stroke-linecap:round;stroke-linejoin:round;stroke-miterlimit:10;" points="
	245.68,468.407 262.207,426.513 363.383,426.513 379.91,468.407 "/>
<path style="fill:none;stroke:#F9DF19;stroke-width:3;stroke-linecap:round;stroke-linejoin:round;stroke-miterlimit:10;stroke-dasharray:12;" d="
	M420.59,402.592l-65.466,26.081c-16.759,6.677-27.756,22.895-27.756,40.935v134.069"/>
<path style="fill:none;stroke:#F9DF19;stroke-width:3;stroke-linecap:round;stroke-linejoin:round;stroke-miterlimit:10;stroke-dasharray:12;" d="
	M233.171,355.254l51.53,25.951c10.002,5.037,16.311,15.279,16.311,26.478v172.084"/>
<path style="fill:none;stroke:#F9DF19;stroke-width:3;stroke-linecap:round;stroke-linejoin:round;stroke-miterlimit:10;stroke-dasharray:12;" d="
	M312.795,536.329v-114.1c0-6.212,1.025-12.382,3.034-18.261l5.473-16.013"/>
<path style="fill:#FFFFFF;" d="M379.91,468.407h-44.96c-4.498,4.564-12.518,7.691-22.155,7.691c-9.637,0-17.657-3.127-22.155-7.691
	h-44.96l-16.527,41.895h167.284L379.91,468.407z"/>
<polyline style="fill:none;stroke:#000000;stroke-width:3;stroke-linecap:round;stroke-linejoin:round;stroke-miterlimit:10;" points="
	245.68,468.407 229.153,510.302 396.437,510.302 379.91,468.407 "/>
</svg>
