<?xml version="1.0" encoding="iso-8859-1"?>
<!-- Generator: Adobe Illustrator 23.1.1, SVG Export Plug-In . SVG Version: 6.00 Build 0)  -->
<svg version="1.1" class="logo-svg" xmlns="http://www.w3.org/2000/svg" xmlns:xlink="http://www.w3.org/1999/xlink" x="0px" y="0px"
	 viewBox="0 0 142.703 257.562" style="enable-background:new 0 0 142.703 257.562;" xml:space="preserve">
<path class="chain-link link0" style="fill:none;stroke:#000000;stroke-width:16;stroke-linecap:round;stroke-miterlimit:10;" d="M64.695,125.193
	l-11.172-11.172c-10.313-10.313-10.313-27.033,0-37.345l0,0c10.313-10.313,27.033-10.313,37.345,0l28.631,28.631
	c10.313,10.313,10.313,27.033,0,37.345l0,0c-10.313,10.313-27.033,10.313-37.345,0"/>
<path class="chain-link link1" style="fill:none;stroke:#000000;stroke-width:16;stroke-linecap:round;stroke-miterlimit:10;" d="M78.304,40.092
	l11.172,11.172c10.313,10.313,10.313,27.033,0,37.345l0,0c-10.313,10.313-27.033,10.313-37.345,0L23.499,59.978
	c-10.313-10.313-10.313-27.033,0-37.345l0,0c10.313-10.313,27.033-10.313,37.345,0"/>
<g class="word-chain">
	<path d="M39.304,181.52v2.973h-3.493v-3.162c0-2.973-1.18-4.767-3.87-4.767c-2.643,0-3.87,1.793-3.87,4.767v17.462
		c0,2.974,1.227,4.767,3.87,4.767c2.69,0,3.87-1.793,3.87-4.767v-4.295h3.493v4.106c0,5.002-2.36,8.306-7.457,8.306
		c-5.05,0-7.41-3.304-7.41-8.306V181.52c0-5.003,2.36-8.307,7.41-8.307C36.944,173.214,39.304,176.517,39.304,181.52z"/>
	<path d="M46.337,191.714v14.866h-3.681v-33.036h3.681v14.866h8.118v-14.866h3.681v33.036h-3.681v-14.866H46.337z"/>
	<path d="M65.642,199.926l-1.274,6.654H60.97l6.324-33.036h5.333l6.324,33.036H75.27l-1.274-6.654H65.642z M66.113,196.764h7.363
		l-3.729-19.067L66.113,196.764z"/>
	<path d="M85.513,173.544v33.036h-3.682v-33.036H85.513z"/>
	<path d="M92.545,206.58h-3.304v-33.036h4.672l7.646,23.88v-23.88h3.257v33.036h-3.823l-8.447-26.712V206.58z"/>
</g>
<g class="word-link">
	<path d="M65.977,245.551v-33.037h3.682v29.687h9.438v3.351H65.977z"/>
	<path d="M85.565,212.514v33.037h-3.682v-33.037H85.565z"/>
	<path d="M92.597,245.551h-3.304v-33.037h4.672l7.646,23.881v-23.881h3.257v33.037h-3.822l-8.448-26.713V245.551z"/>
	<path d="M114.261,231.203l-1.935,3.257v11.091h-3.682v-33.037h3.682v15.952l8.778-15.952h3.729l-8.354,15.056l8.637,17.981h-3.776
		L114.261,231.203z"/>
</g>
</svg>
